<?xml version="1.0" standalone="no"?>
<!DOCTYPE svg PUBLIC "-//W3C//DTD SVG 20010904//EN"
 "http://www.w3.org/TR/2001/REC-SVG-20010904/DTD/svg10.dtd">
<svg version="1.0" xmlns="http://www.w3.org/2000/svg"
 width="640.000000pt" height="640.000000pt" viewBox="0 0 640.000000 640.000000"
 preserveAspectRatio="xMidYMid meet">
<metadata>
Created by potrace 1.14, written by Peter Selinger 2001-2017
</metadata>
<g transform="translate(0.000000,640.000000) scale(0.100000,-0.100000)"
fill="#000000" stroke="none">
<path d="M2026 5674 c-154 -37 -294 -150 -365 -295 -60 -124 -1061 -2733
-1077 -2809 -18 -84 -17 -124 2 -218 34 -164 148 -314 294 -385 79 -38 3072
-1193 3198 -1233 87 -29 216 -32 305 -9 153 40 288 148 357 284 15 31 206 522
425 1091 l398 1035 5 107 c4 95 2 117 -21 191 -30 95 -99 202 -168 258 -68 56
-140 91 -334 164 -99 38 -183 71 -187 75 -4 3 7 45 26 92 42 108 56 170 56
256 0 88 -23 181 -62 256 -43 81 -156 195 -233 233 -79 40 -2261 881 -2345
904 -78 21 -193 23 -274 3z m1364 -599 c624 -240 1156 -448 1183 -462 63 -35
132 -110 165 -181 24 -50 27 -69 26 -157 l0 -100 -532 -1379 c-338 -876 -536
-1402 -543 -1443 -13 -73 -6 -164 17 -243 8 -28 14 -53 12 -55 -6 -6 -2750
1054 -2792 1079 -124 72 -203 243 -178 384 10 58 1020 2698 1069 2795 66 132
205 211 358 203 78 -4 113 -17 1215 -441z m1858 -1499 c58 -42 102 -104 133
-185 17 -46 20 -72 17 -141 -5 -84 -10 -98 -397 -1105 -217 -561 -404 -1040
-416 -1065 -31 -60 -112 -135 -183 -168 -43 -20 -78 -27 -144 -30 l-86 -4 13
63 c8 35 149 684 314 1442 166 757 301 1379 301 1381 0 2 89 -31 199 -73 126
-49 217 -91 249 -115z m-1034 -1707 c-109 -497 -199 -906 -201 -909 -8 -9 -39
18 -76 66 -56 74 -80 144 -81 239 l-1 81 275 716 c151 394 276 715 278 713 1
-1 -86 -409 -194 -906z"/>
<path d="M2109 3785 c-67 -36 -58 -124 15 -155 23 -10 337 -131 698 -270 630
-242 659 -252 689 -240 58 25 71 100 23 141 -18 15 -1371 539 -1390 539 -5 -1
-21 -7 -35 -15z"/>
<path d="M1914 3326 c-18 -8 -36 -27 -44 -46 -21 -51 5 -93 72 -118 29 -11
341 -131 693 -266 479 -185 646 -245 666 -241 63 14 85 94 39 139 -16 14 -278
120 -706 284 -375 144 -683 262 -685 262 -2 -1 -18 -7 -35 -14z"/>
<path d="M1694 2796 c-35 -29 -39 -86 -8 -115 22 -22 1368 -541 1401 -541 12
0 34 11 49 24 35 29 39 86 9 116 -24 23 -1363 540 -1399 540 -14 0 -37 -11
-52 -24z"/>
</g>
</svg>
